# Hierarchical Translation and Rotation (.htr) file
# Generated by EVaRT
[Header]
FileType htr
DataType HTRS
FileVersion 1
NumSegments 23
NumFrames 4
DataFrameRate 120
EulerRotationOrder ZYX
CalibrationUnits mm
RotationUnits Degrees
GlobalAxisofGravity Y
BoneLengthAxis Y
ScaleFactor 1
[SegmentNames&Hierarchy]
#CHILD            PARENT
DaveRoot          GLOBAL
Spine1            DaveRoot
Spine2            Spine1
Spine3            Spine2
Spine4            Spine3
Neck              Spine4
Head              Neck
LClavicle         Spine4
LUpperArm         LClavicle
LLowerArm         LUpperArm
LHand             LLowerArm
RClavicle         Spine4
RUpperArm         RClavicle
RLowerArm         RUpperArm
RHand             RLowerArm
RUpperLeg         DaveRoot
RLowerLeg         RUpperLeg
RFoot             RLowerLeg
RToes             RFoot
LUpperLeg         DaveRoot
LLowerLeg         LUpperLeg
LFoot             LLowerLeg
LToes             LFoot
[BasePosition]
#SegmentName      Tx   Ty   Tz   Rx   Ry   Rz   BoneLength
DaveRoot          -2055.569378	951.555595	-349.488296	-55.286396	87.050266	-65.121985	100.000000
Spine1            0.000000	100.000000	0.000000	-15.583766	0.109194	-2.004305	100.000000
Spine2            0.000000	100.000000	0.000000	5.873579	0.737526	-1.849210	100.000000
Spine3            0.000000	100.000000	0.000000	12.197367	0.936767	-1.756723	100.000000
Spine4            0.000000	100.000000	0.000000	13.310112	2.040835	-0.212222	100.000000
Neck              0.000000	100.000000	0.000000	12.619245	0.173111	5.676401	80.000000
Head              0.000000	80.000000	0.000000	-46.107413	-7.464542	12.340102	200.000000
LClavicle         0.000000	100.000000	0.000000	1.044460	-1.911847	-125.483710	200.000000
LUpperArm         0.000000	200.000000	0.000000	43.357802	45.679579	2.001361	300.000000
LLowerArm         0.000000	300.000000	0.000000	0.730208	2.175812	1.895763	200.000000
LHand             0.000000	200.000000	0.000000	7.864047	-1.768569	8.793625	120.000000
RClavicle         0.000000	100.000000	0.000000	-0.545713	-3.840301	119.120382	200.000000
RUpperArm         0.000000	200.000000	0.000000	38.253382	-38.646808	20.273438	300.000000
RLowerArm         0.000000	300.000000	0.000000	3.077531	-3.682026	-7.348670	200.000000
RHand             0.000000	200.000000	0.000000	24.943087	4.220171	-5.193807	120.000000
RUpperLeg         -115.911102	-10.000000	31.058285	22.464267	14.037388	-176.329742	530.000000
RLowerLeg         0.000000	530.000000	0.000000	-23.704548	0.479387	-2.520024	460.000000
RFoot             0.000000	460.000000	0.000000	90.327319	5.730808	-0.531790	130.000000
RToes             0.000000	130.000000	0.000000	18.726053	0.005479	-0.002881	100.000000
LUpperLeg         115.911102	-10.000000	31.058285	16.272232	9.077962	178.396881	530.000000
LLowerLeg         0.000000	530.000000	0.000000	-9.044305	-3.275937	3.046484	460.000000
LFoot             0.000000	460.000000	0.000000	80.193205	-12.160808	23.252942	130.000000
LToes             0.000000	130.000000	0.000000	33.283153	-0.000000	-0.000086	100.000000
#Beginning of Data.
[DaveRoot]
#Fr	Tx	Ty	Tz	Rx	Ry	Rz	SF
1388	381.082023	16.801687	421.470416	-7.172436	-60.243187	18.841442	1.000000	
1389	381.610626	17.238344	420.658363	-7.158980	-60.205863	18.597572	1.000000	
1390	382.158732	17.649364	419.799247	-7.163789	-60.165349	18.386455	1.000000	
1391	382.726038	18.000511	418.894119	-7.195637	-60.117891	18.214338	1.000000	
[Spine1]
#Fr	Tx	Ty	Tz	Rx	Ry	Rz	SF
1388	0.000000	0.000000	0.000000	-0.854584	-0.995431	0.007792	1.000000	
1389	0.000000	0.000000	0.000000	-0.875525	-0.971392	0.050418	1.000000	
1390	0.000000	0.000000	0.000000	-0.896841	-0.948742	0.088933	1.000000	
1391	0.000000	0.000000	0.000000	-0.917310	-0.928729	0.119783	1.000000	
[Spine2]
#Fr	Tx	Ty	Tz	Rx	Ry	Rz	SF
1388	0.000000	0.000000	0.000000	-0.854584	-0.995431	0.007792	1.000000	
1389	0.000000	0.000000	0.000000	-0.875525	-0.971392	0.050418	1.000000	
1390	0.000000	0.000000	0.000000	-0.896841	-0.948742	0.088933	1.000000	
1391	0.000000	0.000000	0.000000	-0.917310	-0.928729	0.119783	1.000000	
[Spine3]
#Fr	Tx	Ty	Tz	Rx	Ry	Rz	SF
1388	0.000000	0.000000	0.000000	-0.854584	-0.995431	0.007792	1.000000	
1389	0.000000	0.000000	0.000000	-0.875525	-0.971392	0.050418	1.000000	
1390	0.000000	0.000000	0.000000	-0.896841	-0.948742	0.088933	1.000000	
1391	0.000000	0.000000	0.000000	-0.917310	-0.928729	0.119783	1.000000	
[Spine4]
#Fr	Tx	Ty	Tz	Rx	Ry	Rz	SF
1388	0.000000	0.000000	0.000000	-0.854584	-0.995431	0.007792	1.000000	
1389	0.000000	0.000000	0.000000	-0.875525	-0.971392	0.050418	1.000000	
1390	0.000000	0.000000	0.000000	-0.896841	-0.948742	0.088933	1.000000	
1391	0.000000	0.000000	0.000000	-0.917310	-0.928729	0.119783	1.000000	
[Neck]
#Fr	Tx	Ty	Tz	Rx	Ry	Rz	SF
1388	0.000000	0.000000	0.000000	-2.795045	18.329404	-5.671681	1.000000	
1389	0.000000	0.000000	0.000000	-2.706492	18.441292	-5.675378	1.000000	
1390	0.000000	0.000000	0.000000	-2.650662	18.619422	-5.689644	1.000000	
1391	0.000000	0.000000	0.000000	-2.623359	18.848543	-5.709972	1.000000	
[Head]
#Fr	Tx	Ty	Tz	Rx	Ry	Rz	SF
1388	0.000000	0.000000	0.000000	-2.795045	18.329404	-5.671681	1.000000	
1389	0.000000	0.000000	0.000000	-2.706492	18.441292	-5.675378	1.000000	
1390	0.000000	0.000000	0.000000	-2.650662	18.619422	-5.689644	1.000000	
1391	0.000000	0.000000	0.000000	-2.623359	18.848543	-5.709972	1.000000	
[LClavicle]
#Fr	Tx	Ty	Tz	Rx	Ry	Rz	SF
1388	0.000000	0.000000	0.000000	3.566995	-0.079740	22.293546	1.000000	
1389	0.000000	0.000000	0.000000	3.452649	-0.062096	22.043676	1.000000	
1390	0.000000	0.000000	0.000000	3.344662	-0.045969	21.801102	1.000000	
1391	0.000000	0.000000	0.000000	3.246241	-0.032021	21.579107	1.000000	
[LUpperArm]
#Fr	Tx	Ty	Tz	Rx	Ry	Rz	SF
1388	0.000000	0.000000	0.000000	7.824294	-41.790653	17.551888	1.000000	
1389	0.000000	0.000000	0.000000	7.876072	-41.392338	17.656360	1.000000	
1390	0.000000	0.000000	0.000000	7.874630	-41.058979	17.713449	1.000000	
1391	0.000000	0.000000	0.000000	7.828782	-40.786491	17.724609	1.000000	
[LLowerArm]
#Fr	Tx	Ty	Tz	Rx	Ry	Rz	SF
1388	0.000000	0.000000	0.000000	124.288312	-0.000000	-0.000000	1.000000	
1389	0.000000	0.000000	0.000000	126.023717	-0.000000	-0.000000	1.000000	
1390	0.000000	0.000000	0.000000	127.634515	-0.000000	-0.000000	1.000000	
1391	0.000000	0.000000	0.000000	129.127382	-0.000000	-0.000000	1.000000	
[LHand]
#Fr	Tx	Ty	Tz	Rx	Ry	Rz	SF
1388	0.000000	0.000000	0.000000	-1.321873	0.000000	0.000000	1.000000	
1389	0.000000	0.000000	0.000000	-1.006895	0.000000	0.000000	1.000000	
1390	0.000000	0.000000	0.000000	-0.591287	-0.000000	0.000000	1.000000	
1391	0.000000	0.000000	0.000000	-0.136093	0.000000	0.000000	1.000000	
[RClavicle]
#Fr	Tx	Ty	Tz	Rx	Ry	Rz	SF
1388	0.000000	0.000000	0.000000	5.530439	-0.441178	-6.749505	1.000000	
1389	0.000000	0.000000	0.000000	5.511074	-0.439589	-6.749863	1.000000	
1390	0.000000	0.000000	0.000000	5.499549	-0.439520	-6.741034	1.000000	
1391	0.000000	0.000000	0.000000	5.496090	-0.441273	-6.720051	1.000000	
[RUpperArm]
#Fr	Tx	Ty	Tz	Rx	Ry	Rz	SF
1388	0.000000	0.000000	0.000000	-23.179061	37.740565	-38.570969	1.000000	
1389	0.000000	0.000000	0.000000	-23.595290	37.668930	-38.824396	1.000000	
1390	0.000000	0.000000	0.000000	-24.008660	37.597862	-39.081289	1.000000	
1391	0.000000	0.000000	0.000000	-24.402532	37.497781	-39.317810	1.000000	
[RLowerArm]
#Fr	Tx	Ty	Tz	Rx	Ry	Rz	SF
1388	0.000000	0.000000	0.000000	118.166519	-0.000000	-0.000000	1.000000	
1389	0.000000	0.000000	0.000000	119.421145	-0.000000	-0.000000	1.000000	
1390	0.000000	0.000000	0.000000	120.500180	-0.000000	-0.000000	1.000000	
1391	0.000000	0.000000	0.000000	121.426735	-0.000000	-0.000000	1.000000	
[RHand]
#Fr	Tx	Ty	Tz	Rx	Ry	Rz	SF
1388	0.000000	0.000000	0.000000	8.785951	-25.494557	-13.550662	1.000000	
1389	0.000000	0.000000	0.000000	10.673080	-26.830570	-14.338940	1.000000	
1390	0.000000	0.000000	0.000000	12.615366	-27.960678	-15.117629	1.000000	
1391	0.000000	0.000000	0.000000	14.522673	-28.959281	-15.907357	1.000000	
[RUpperLeg]
#Fr	Tx	Ty	Tz	Rx	Ry	Rz	SF
1388	0.000000	0.000000	0.000000	10.747482	-10.117105	-0.331492	1.000000	
1389	0.000000	0.000000	0.000000	10.406143	-9.931115	-0.245368	1.000000	
1390	0.000000	0.000000	0.000000	10.092285	-9.648329	-0.188589	1.000000	
1391	0.000000	0.000000	0.000000	9.816974	-9.280225	-0.168848	1.000000	
[RLowerLeg]
#Fr	Tx	Ty	Tz	Rx	Ry	Rz	SF
1388	0.000000	0.000000	0.000000	1.406232	0.000000	0.000000	1.000000	
1389	0.000000	0.000000	0.000000	1.708137	0.000000	0.000000	1.000000	
1390	0.000000	0.000000	0.000000	2.015594	0.000000	0.000000	1.000000	
1391	0.000000	0.000000	0.000000	2.292626	0.000000	0.000000	1.000000	
[RFoot]
#Fr	Tx	Ty	Tz	Rx	Ry	Rz	SF
1388	0.000000	0.000000	0.000000	-11.339475	2.953591	6.827849	1.000000	
1389	0.000000	0.000000	0.000000	-11.619021	3.161809	6.648823	1.000000	
1390	0.000000	0.000000	0.000000	-11.941934	3.274465	6.605172	1.000000	
1391	0.000000	0.000000	0.000000	-12.300557	3.309022	6.685505	1.000000	
[RToes]
#Fr	Tx	Ty	Tz	Rx	Ry	Rz	SF
1388	0.000000	0.000000	0.000000	-1.864188	-0.000000	0.000000	1.000000	
1389	0.000000	0.000000	0.000000	-2.220600	0.000000	0.000000	1.000000	
1390	0.000000	0.000000	0.000000	-2.469956	0.000000	0.000000	1.000000	
1391	0.000000	0.000000	0.000000	-2.579336	-0.000000	0.000000	1.000000	
[LUpperLeg]
#Fr	Tx	Ty	Tz	Rx	Ry	Rz	SF
1388	0.000000	0.000000	0.000000	0.017299	1.193293	1.950331	1.000000	
1389	0.000000	0.000000	0.000000	-0.115340	1.292902	1.969516	1.000000	
1390	0.000000	0.000000	0.000000	-0.236828	1.446127	1.963962	1.000000	
1391	0.000000	0.000000	0.000000	-0.343342	1.632427	1.931537	1.000000	
[LLowerLeg]
#Fr	Tx	Ty	Tz	Rx	Ry	Rz	SF
1388	0.000000	0.000000	0.000000	-3.642413	0.000000	-0.000000	1.000000	
1389	0.000000	0.000000	0.000000	-3.685640	0.000000	-0.000000	1.000000	
1390	0.000000	0.000000	0.000000	-3.729234	0.000000	-0.000000	1.000000	
1391	0.000000	0.000000	0.000000	-3.787678	0.000000	-0.000000	1.000000	
[LFoot]
#Fr	Tx	Ty	Tz	Rx	Ry	Rz	SF
1388	0.000000	0.000000	0.000000	9.680502	1.228004	-15.807599	1.000000	
1389	0.000000	0.000000	0.000000	9.539637	1.055193	-15.941239	1.000000	
1390	0.000000	0.000000	0.000000	9.388333	0.934561	-15.991437	1.000000	
1391	0.000000	0.000000	0.000000	9.250049	0.862172	-15.977681	1.000000	
[LToes]
#Fr	Tx	Ty	Tz	Rx	Ry	Rz	SF
1388	0.000000	0.000000	0.000000	-1.708188	-0.000000	0.000000	1.000000	
1389	0.000000	0.000000	0.000000	-1.658069	-0.000000	0.000000	1.000000	
1390	0.000000	0.000000	0.000000	-1.632533	-0.000000	0.000000	1.000000	
1391	0.000000	0.000000	0.000000	-1.648685	-0.000000	0.000000	1.000000	
